<svg xmlns="http://www.w3.org/2000/svg" width="32" height="25" viewBox="0 0 32 25">
    <g fill="none" fill-rule="evenodd">
        <g stroke="#0AD" stroke-width="1.3">
            <path d="M23.284 6.03a.596.596 0 0 0-.84 0L10.173 18.24a.586.586 0 0 0-.166.326l-.994 4.577c-.042.196.019.4.16.541a.596.596 0 0 0 .545.16l4.493-.957a.575.575 0 0 0 .427-.173l12.272-12.21a.589.589 0 0 0 0-.835l-3.626-3.64zM30.786 5.765l-3.613-3.6a.607.607 0 0 0-.834 0l-1.667 1.661a.586.586 0 0 0 0 .83l3.613 3.6c.23.23.604.23.834 0l1.667-1.66a.586.586 0 0 0 0-.83z"/>
        </g>
        <text fill="#1EA8D8" font-family="Helvetica" font-size="18" transform="translate(0 -9)">
            <tspan x="0" y="18.143">+</tspan>
        </text>
    </g>
</svg>
