<svg xmlns="http://www.w3.org/2000/svg" width="20" height="24" viewBox="0 0 20 24">
    <g fill="#B60000" fill-rule="evenodd">
        <path d="M6.333 20.575a.616.616 0 0 0 .616-.6V6.825a.616.616 0 0 0-1.231 0V19.95c0 .35.282.625.615.625zM10 20.575a.616.616 0 0 0 .615-.6V6.825a.616.616 0 0 0-1.23 0V19.95c0 .35.282.625.615.625zM13.667 20.575a.616.616 0 0 0 .615-.6V6.825a.616.616 0 0 0-1.23 0V19.95c-.026.35.256.625.615.625z"/>
        <path fill-rule="nonzero" d="M19.18 2.8h-4.693L13.257.85a1.58 1.58 0 0 0-1.334-.725H8.077A1.58 1.58 0 0 0 6.744.85L5.513 2.8H.82a.616.616 0 0 0-.616.6c0 .325.282.6.616.6h1.05v17.95c0 1.05.873 1.9 1.95 1.9h12.333c1.077 0 1.949-.85 1.949-1.9V4.025h1.05a.616.616 0 0 0 .616-.6c0-.325-.256-.625-.59-.625zM7.794 1.475c.051-.1.154-.15.256-.15h3.872c.103 0 .205.05.256.15l.821 1.3H6.974l.82-1.3zm9.077 20.5c0 .375-.308.7-.718.7H3.846a.708.708 0 0 1-.718-.7V4.025h13.744v17.95z"/>
    </g>
</svg>
